
        <svg xmlns="http://www.w3.org/2000/svg" xmlns:xlink="http://www.w3.org/1999/xlink" version="1.1" width="3162.1621621621625" 
        height="1762.6535962011658" viewBox="0 0 3162.1621621621625 1762.6535962011658">
			
			<g transform="scale(8.108108108108109) translate(10, 10)">
				<defs id="SvgjsDefs2856"></defs><g id="SvgjsG2857" featureKey="symbolFeature-0" transform="matrix(3.4088392581394973,0,0,3.4088392581394973,0.0017042960940166774,0.0017042960940166774)" fill="#ff7e67"><g xmlns="http://www.w3.org/2000/svg"><path fill="#ff7e67" d="M4,57.906c-1.024,0-2.047-0.391-2.829-1.172c-1.562-1.562-1.562-4.095,0-5.656l18.776-18.775   c0.895-0.896,1.388-2.085,1.388-3.35c0-1.266-0.493-2.455-1.387-3.349L1.172,6.828c-1.562-1.562-1.562-4.095,0-5.657   c1.562-1.562,4.095-1.562,5.657,0l18.776,18.776c2.405,2.404,3.73,5.604,3.73,9.006c0,3.401-1.325,6.601-3.73,9.006L6.829,56.735   C6.047,57.516,5.024,57.906,4,57.906z"></path></g></g><g id="SvgjsG2858" featureKey="nameFeature-0" transform="matrix(1.7605688666219719,0,0,1.7605688666219719,117.48362005529071,35.879685953800326)" fill="#07689f"><path d="M16.286 35.7143 l-4.2857 4.2857 l-10.571 0 l0 -6.2857 l7.4286 0 l0 -22.286 l7.4286 0 l0 24.286 z M32.85742857142857 40 l-3.1429 0 l-4.2857 -4.2857 l0 -24.286 l7.4286 0 l0 28.571 z M34.00042857142857 11.428999999999998 l15.714 0 l0 6.2857 l-15.714 0 l0 -6.2857 z M47.42842857142857 22.571 l0 6.2857 l-13.429 0 l0 -6.2857 l13.429 0 z M34.00042857142857 40 l0 -6.2857 l15.714 0 l0 6.2857 l-15.714 0 z M64.1143 11.428999999999998 l0 6.2857 l-7.2571 0 l0 -6.2857 l7.2571 0 z M65.2571 11.428999999999998 l15.886 0 l0 6.2857 l-8.4571 0 l0 22.286 l-7.4286 0 l0 -28.571 z M106.39957142857143 11.428999999999998 l-5.6571 6.2857 l-13.314 0 l0 -6.2857 l18.971 0 z M111.71457142857143 11.428999999999998 l0 6.2857 l-14.571 16 l14.571 0 l0 6.2857 l-24.286 0 l0 -6.2857 l20.343 -22.286 l3.9429 0 z M138.11385714285714 11.428999999999998 l-5.6571 6.2857 l-13.314 0 l0 -6.2857 l18.971 0 z M143.42885714285714 11.428999999999998 l0 6.2857 l-14.571 16 l14.571 0 l0 6.2857 l-24.286 0 l0 -6.2857 l20.343 -22.286 l3.9429 0 z"></path></g><g id="SvgjsG2859" featureKey="sloganFeature-0" transform="matrix(1.0535348621720604,0,0,1.0535348621720604,145.47323256891397,111.8629848059233)" fill="#07689f"><path d="M8.0216 8.086 c1.3211 1.3192 2.0478 3.0746 2.046 4.942 c0 3.6762 -2.8868 6.725 -6.5116 6.9714 l-0.6127 0 l0 -13.958 l0.43238 0 l0 0.0055273 c1.7553 0.071758 3.3984 0.79118 4.6458 2.0386 z M3.3758 8.993 l0 8.0681 c2.0864 -0.15271 3.748 -1.9172 3.748 -4.0332 c0 -2.1178 -1.6615 -3.8822 -3.748 -4.035 z M3.3758 17.4934 l0 0.19689 c2.4342 -0.15271 4.3772 -2.2006 4.3772 -4.6624 c0 -2.4636 -1.9448 -4.5096 -4.3772 -4.6642 l0 0.19687 c2.3238 0.15271 4.1804 2.114 4.1804 4.4674 c0 2.3514 -1.8565 4.3128 -4.1804 4.4656 z M3.3758 18.122700000000002 l0 0.19687 c2.7782 -0.15455 5.0046 -2.4838 5.0046 -5.2916 s-2.2262 -5.1352 -5.0046 -5.2916 l0 0.19504 c2.6716 0.15455 4.8096 2.3974 4.8096 5.0966 s-2.1398 4.9402 -4.8096 5.0948 z M3.3758 18.7519 l0 0.19506 c3.126 -0.15455 5.6338 -2.7636 5.6338 -5.919 c0 -3.1536 -2.5078 -5.7646 -5.6338 -5.9208 l0 0.19687 c3.0174 0.15639 5.437 2.679 5.437 5.724 s-2.4196 5.5694 -5.437 5.724 z M3.3758 19.57624 c3.472 -0.15639 6.2612 -3.047 6.2612 -6.5484 c0 -1.7516 -0.68262 -3.3984 -1.9209 -4.6366 c-1.1665 -1.1684 -2.701 -1.8418 -4.3404 -1.9135 l0 0.19687 c3.3616 0.15639 6.0644 2.9622 6.0644 6.3532 s-2.701 6.195 -6.0644 6.3514 l0 0.19687 z M2.765 19.9994336 l-0.43238 0 l0 -13.958 l0.43238 0 l0 13.958 z M2.154 19.9994336 l-0.43238 0 l0 -13.958 l0.43238 0 l0 13.958 z M1.5432 19.9994336 l-0.43238 0 l0 -13.958 l0.43238 0 l0 13.958 z M0.93238 19.9994336 l-0.43238 0 l0 -13.958 l0.43238 0 l0 13.958 z M23.286800000000003 6.016 l0.46918 0 l-5.8308 13.983 l-0.46918 0 z M23.954600000000003 6.016 l0.46918 0 l-5.8308 13.983 l-0.46734 0 z M24.6244 6.016 l0.46734 0 l-5.8308 13.983 l-0.46734 0 z M25.2922 6.016 l0.46918 0 l-5.8326 13.983 l-0.46734 0 z M31.815000000000005 19.99939454 l-5.5714 -13.54 l-0.11959 0.28886 l5.4518 13.251 l-0.46734 0 l-5.2198 -12.688 l-0.11959 0.28886 l5.1022 12.401 l-0.46734 0 l-4.8702 -11.836 l-0.11959 0.28704 l4.7506 11.549 l-0.46734 0 l-4.5188 -10.984 l-0.11959 0.28704 l4.4012 10.695 l-0.46734 0 l-1.0488 -2.5538 l-6.2778 0 l-1.0653 2.5538 l-0.46918 0 l5.8308 -13.983 l0.5667 0 l5.7534 13.983 l-0.46734 0 z M27.763000000000005 17.0132 l-0.092012 -0.22448 l-5.7332 0 l-0.093828 0.22448 l5.9191 0 z M27.493000000000002 16.3564 l-0.093848 -0.22448 l-5.1886 0 l-0.093828 0.22448 l5.3763 0 z M27.222 15.6994 l-0.093848 -0.22448 l-4.644 0 l-0.093828 0.22448 l4.8317 0 z M26.951800000000002 15.0426 l-0.091992 -0.22448 l-4.1012 0 l-0.093828 0.22448 l4.287 0 z M26.681400000000004 14.3858 l-1.8583 -4.517 l-1.8841 4.517 l3.7424 0 z M37.572 6.021000000000001 l0.50047 0 l4.4288 7.5952 l0 6.3827 l-0.43238 0 l0 -6.265 z M38.34478 6.021000000000001 l0.49861 0 l4.4288 7.5952 l0 6.3827 l-0.43238 0 l0 -6.265 z M39.616200000000006 6.021000000000001 l4.4268 7.5934 l0.062558 6.3846 l-0.43238 0 l-0.060722 -6.265 l-4.4968 -7.713 l0.50047 0 z M40.389 6.021000000000001 l4.4268 7.5952 l0.033126 6.3828 l-0.43055 0 l-0.033126 -6.265 l-4.4968 -7.713 l0.50047 0 z M49.576 6.021000000000001 l0.50046 -0.000019531 l-4.4876 7.713 l0 6.265 l-0.43238 0 l0 -6.265 l-4.495 -7.713 l0.49861 0 l2.6624 4.5668 l2.666 -4.5668 l0.49861 0 l-2.907 4.9826 l-0.02207 -0.012871 l0.15088 0.2576 l3.0506 -5.2272 l0.50047 0 l-3.3008 5.656 l0.13432 0.23368 l3.4388 -5.8896 l0.50047 0 l-3.689 6.3184 l0.13615 0.23368 l3.8252 -6.552 l0.50047 0 l-4.0754 6.9808 l0.14352 0.24288 z M78.1264 10.918 l-0.39372 0.20784 l0.16375 0.17848 l0.45078 -0.25208 c0.45078 -0.25574 0.74148 -0.6918 0.77828 -1.1702 c0.0018359 -0.038632 0.0036718 -0.07543 0.0036718 -0.11406 c0 -0.41214 -0.16375 -0.7967 -0.46366 -1.0819 c-0.29624 -0.28704 -0.68814 -0.43422 -1.1003 -0.4195 c-0.7654 0.029434 -1.4112 0.6771 -1.4425 1.4425 c-0.014727 0.39376 0.12143 0.77278 0.38636 1.0653 l0.0091992 0.0073632 l6.7176 7.391 l-0.32016 0.2907 l-6.725 -7.3984 c-0.34222 -0.37902 -0.51702 -0.86476 -0.49862 -1.3726 c0.038632 -1.0028 0.85556 -1.8197 1.8583 -1.8583 c0.5299 -0.020234 1.034 0.17111 1.4168 0.5391 c0.38272 0.36982 0.59432 0.86476 0.59432 1.3947 c0 0.049688 -0.0018359 0.09752 -0.0055078 0.14721 c-0.047832 0.6219 -0.4195 1.1868 -0.99722 1.5124 l-0.36246 0.20424 l0.16191 0.17848 l0.58142 -0.3551 c0.15824 -0.09752 0.29072 -0.21344 0.39376 -0.34776 c0.3036 -0.38638 0.46368 -0.8482 0.46368 -1.3395 c0 -0.61636 -0.26494 -1.207 -0.72492 -1.6191 c-0.46734 -0.41766 -1.069 -0.609 -1.6964 -0.53908 c-0.96412 0.10855 -1.7627 0.88132 -1.8988 1.8399 c-0.093828 0.65318 0.10672 1.3045 0.5483 1.7866 l0.025762 0.023926 l6.7102 7.3836 l-0.3183 0.28886 l-6.7268 -7.3966 c-0.53726 -0.57774 -0.78014 -1.3615 -0.66974 -2.1472 c0.16375 -1.15 1.1223 -2.0792 2.2796 -2.208 c0.73964 -0.082792 1.4811 0.15271 2.0332 0.64582 c0.55382 0.49494 0.8703 1.2015 0.8703 1.9411 c0 0.58878 -0.19135 1.1444 -0.5538 1.6081 c-0.13615 0.17295 -0.30726 0.32382 -0.50964 0.4471 l-0.5115 0.3128 l0.17111 0.18768 l0.58326 -0.37352 c0.10855 -0.069922 0.20424 -0.15088 0.28886 -0.23736 c0.49678 -0.5299 0.77092 -1.2199 0.77092 -1.9448 c0 -0.78748 -0.31646 -1.5198 -0.89052 -2.0626 s-1.3247 -0.81876 -2.1122 -0.7746 c-1.4683 0.080958 -2.6716 1.3431 -2.6826 2.815 c-0.0055274 0.72862 0.26494 1.4223 0.76172 1.9558 l0.023926 0.02207 l6.723 7.3892 l-0.32016 0.2907 l-6.7304 -7.3946 c-0.57958 -0.61636 -0.89604 -1.4204 -0.88868 -2.265 c0.012871 -1.7259 1.3689 -3.15 3.091 -3.2438 c0.90892 -0.051524 1.7719 0.26678 2.4306 0.8905 c0.66052 0.62558 1.0248 1.4701 1.0248 2.3772 c0 0.83534 -0.31646 1.632 -0.8887 2.241 c-0.10672 0.11223 -0.23 0.21526 -0.36984 0.30358 l-0.5207 0.33486 l0.17848 0.19688 l0.31096 -0.21528 c0.54094 -0.37536 0.96046 -0.85926 1.2088 -1.3984 c0.21158 -0.45998 0.3183 -0.95126 0.3183 -1.4609 c0 -0.96596 -0.40478 -1.8988 -1.1113 -2.5612 c-0.71574 -0.67158 -1.6523 -1.0064 -2.633 -0.94204 c-1.7056 0.11039 -3.1076 1.4756 -3.2622 3.1758 c-0.091992 1.0101 0.25576 2.011 0.95126 2.7434 l0.014727 0.014727 l6.7268 7.3818 l-0.32016 0.2907 l-1.5271 -1.6762 l-0.67892 0.6863 c-0.76724 0.72126 -1.7645 1.1168 -2.8114 1.1168 c-2.2612 0 -4.1012 -1.8399 -4.1012 -4.1012 c0 -1.529 0.87766 -2.9182 2.2282 -3.621 c-0.66606 -0.80038 -1.0083 -1.8271 -0.9126 -2.874 c0.17479 -1.9098 1.7498 -3.4444 3.6652 -3.5694 c1.1021 -0.071758 2.1508 0.3036 2.955 1.058 c0.79484 0.74334 1.2493 1.7921 1.2493 2.8758 c0 0.57222 -0.11959 1.1242 -0.35694 1.6412 c-0.2815 0.6127 -0.75068 1.1573 -1.3579 1.5768 l-0.26126 0.18031 l0.49862 0.54646 l1.1831 -1.1665 l0.3036 0.3091 l-1.196 1.1776 l0.15271 0.16744 l1.2015 -1.1923 l0.3036 0.30726 l-1.2125 1.2052 l0.15455 0.16928 l1.2144 -1.2199 l0.30542 0.30542 l-1.2291 1.2346 l0.15271 0.16744 l1.2309 -1.2456 l0.30726 0.3036 l-1.2475 1.2622 l0.15088 0.16559 l1.2493 -1.2695 l0.3091 0.3036 l-1.2659 1.2861 l1.5511 1.7038 l-0.32016 0.2907 l-6.7414 -7.4038 c-0.23368 -0.2815 -0.33302 -0.65686 -0.27046 -1.0248 c0.086484 -0.51334 0.4876 -0.92366 0.9954 -1.023 c0.37902 -0.073594 0.76358 0.023926 1.0561 0.26496 c0.29256 0.24104 0.46184 0.59798 0.46184 0.97702 c0 0.2576 -0.077286 0.50414 -0.2208 0.71388 c-0.12512 0.18398 -0.31462 0.33486 -0.54462 0.43606 z M79.09420000000001 18.4765 l0.58876 -0.59616 l-0.15639 -0.17295 l-0.70468 0.70468 c-0.63662 0.59246 -1.4664 0.91996 -2.3368 0.91996 c-1.8914 0 -3.4314 -1.5382 -3.4314 -3.4314 c0 -1.31 0.7654 -2.5244 1.9485 -3.0948 l0.042324 -0.020234 l-0.16008 -0.17479 c-1.2548 0.61454 -2.068 1.8914 -2.068 3.2898 c0 2.022 1.6449 3.6688 3.6688 3.6688 c0.93652 0 1.8289 -0.3551 2.5116 -0.99722 z M75.85600000000001 14.6218 l0.59798 -0.28704 l-0.16375 -0.18031 l-0.53726 0.25574 c-0.57222 0.27966 -0.92918 0.8519 -0.92918 1.4904 c0 0.9163 0.74518 1.6615 1.6615 1.6615 c0.40846 0 0.80038 -0.15088 1.1058 -0.42318 l0.060722 -0.060722 l0.68446 -0.68078 l-0.15455 -0.16928 l-0.6863 0.68078 l-0.07912 0.068086 c-0.25944 0.22264 -0.58878 0.34592 -0.93102 0.34592 c-0.78564 0 -1.4241 -0.63846 -1.4241 -1.4241 c0 -0.54646 0.30542 -1.0359 0.79484 -1.2769 z M76.75560000000002 14.666 l-0.71022 0.34406 c-0.3404 0.16928 -0.552 0.50966 -0.552 0.89052 c0 0.54646 0.44526 0.99172 0.99172 0.99172 c0.2392 0 0.4692 -0.086484 0.64952 -0.24288 l0.073594 -0.062558 l0.68078 -0.6771 z M75.5652 14.020199999999999 l0.41946 -0.2006 l-0.16559 -0.18215 l-0.3496 0.16375 c-0.79854 0.38638 -1.3155 1.2107 -1.3155 2.0976 c0 1.2861 1.0469 2.3312 2.3312 2.3312 c0.58326 0 1.1426 -0.2171 1.5731 -0.6127 l0.093828 -0.084628 l0.63478 -0.63846 l-0.16008 -0.17664 l-0.74148 0.73782 c-0.39006 0.34776 -0.885 0.53726 -1.4002 0.53726 c-1.1555 0 -2.0938 -0.9402 -2.0938 -2.0938 c0 -0.80404 0.44894 -1.5235 1.1739 -1.8786 z M75.2856 13.411 l0.22816 -0.1067 l-0.16744 -0.18215 l-0.16191 0.07543 c-1.0304 0.49678 -1.7001 1.5584 -1.7001 2.7028 c0 1.6541 1.3468 2.999 3.001 2.999 c0.76174 0 1.4867 -0.28704 2.0442 -0.8059 l0.082792 -0.07543 l0.62556 -0.62926 l-0.15824 -0.17479 l-0.72862 0.72308 c-0.50966 0.46734 -1.172 0.72494 -1.8639 0.72494 c-1.5235 0 -2.7636 -1.2401 -2.7636 -2.7636 c0 -1.0506 0.6127 -2.0276 1.5621 -2.4876 z M76.99660000000002 10.3162 l0.43416 0.47836 l0.51518 -0.27046 c0.16008 -0.068086 0.28704 -0.16744 0.36798 -0.28704 c0.095684 -0.13799 0.14537 -0.2999 0.14537 -0.46918 c0 -0.25024 -0.11039 -0.4839 -0.30358 -0.64398 c-0.15088 -0.12512 -0.33486 -0.18951 -0.52804 -0.18951 c-0.057032 0 -0.11406 0.0055274 -0.17109 0.016563 c-0.3275 0.062558 -0.59614 0.33856 -0.65132 0.66974 c-0.042324 0.2484 0.020234 0.48944 0.17848 0.67894 z M106.92838000000002 19.99939454 l-0.43238 0 l0 -13.958 l0.43238 0 l0 13.958 z M107.59630000000003 19.99939454 l-0.43238 0 l0 -13.958 l0.43238 0 l0 13.958 z M108.26240000000003 19.99939454 l-0.43238 0 l0 -13.958 l0.43238 0 l0 13.958 z M108.93020000000003 19.99939454 l-0.43238 0 l0 -13.958 l0.43238 0 l0 13.958 z M117.90000000000002 6.042 l0.4324 -0.000019531 l0 13.958 l-0.53357 0 l-8.2024 -13.207 l0 0.38271 l0.0036718 -0.0018359 l7.965 12.826 l-0.50781 0 l-7.461 -12.013 l0 0.37535 l7.2272 11.638 l-0.50781 0 l-6.7194 -10.819 l0 0.37535 l6.4858 10.443 l-0.50967 0 l-5.9762 -9.6246 l0 0.37535 l5.7442 9.2494 l-0.50967 0 l-5.2346 -8.4306 l0 8.4306 l-0.43238 0 l0 -9.1261 l-0.0036718 -0.0073632 l0.0036718 -0.0018359 l0 -4.8225 l0.47471 0 l5.5934 9.0064 l0 -9.0065 l0.43238 0 l0 9.702 l0.2355 0.37718 l0 -10.079 l0.43055 0 l0 10.776 l0.2355 0.37718 l0 -11.154 l0.43238 0 l0 11.849 l0.23368 0.37902 l0 -12.228 l0.43238 0 l0 12.924 l0.2355 0.37718 l0 -13.301 z M128.14438 19.99939454 l-0.43238 0 l0 -13.978 l0.43238 0 l0 13.978 z M128.81230000000002 19.99939454 l-0.43238 0 l0 -13.978 l0.43238 0 l0 13.978 z M129.47840000000002 19.99939454 l-0.43238 0 l0 -13.978 l0.43238 0 l0 13.978 z M130.14620000000002 19.99939454 l-0.43238 0 l0 -13.978 l0.43238 0 l0 13.978 z M130.81220000000002 19.99939454 l-0.43238 0 l0 -13.978 l0.43238 0 l0 13.978 z M149.59540000000004 20.0012305 l-0.43238 0 l0 -6.2098 l0.43238 0 l0 6.2098 z M150.25000000000003 20.0012305 l-0.43238 0 l0 -6.2098 l0.43238 0 l0 6.2098 z M150.90500000000003 20.0012305 l-0.43238 0 l0 -6.2098 l0.43238 0 l0 6.2098 z M151.55900000000003 20.0012305 l-0.43238 0 l0 -6.2098 l0.43238 0 l0 6.2098 z M147.19800000000004 6.656000000000001 c1.5235 0 2.9972 0.55004 4.1526 1.5546 l-0.28334 0.32566 c-1.0745 -0.931 -2.447 -1.4443 -3.8676 -1.4443 c-3.264 0 -5.921 2.655 -5.921 5.921 c0 3.264 2.6568 5.921 5.921 5.921 l1.3119 0 l0 -0.20424 l-1.3119 0 c-3.1536 0 -5.7186 -2.5648 -5.7186 -5.7186 s2.5648 -5.7186 5.7186 -5.7186 c1.3542 0 2.668 0.4839 3.6982 1.3634 l-0.2815 0.32936 c-0.95308 -0.81324 -2.1656 -1.2604 -3.4186 -1.2604 c-2.9144 0 -5.2862 2.3716 -5.2862 5.2862 s2.3716 5.2862 5.2862 5.2862 l1.3119 0 l0 -0.20424 l-1.3119 0 c-2.8022 0 -5.0818 -2.2796 -5.0818 -5.0818 s2.2796 -5.0818 5.0818 -5.0818 c1.1849 0 2.3386 0.41582 3.2474 1.1739 l-0.27784 0.3312 c-0.8298 -0.69366 -1.8859 -1.0745 -2.9696 -1.0745 c-2.563 0 -4.6496 2.0864 -4.6496 4.6496 s2.0846 4.6496 4.6496 4.6496 l1.3119 0 l0 -0.20424 l-1.3119 0 c-2.4526 0 -4.447 -1.9963 -4.447 -4.447 s1.9945 -4.4452 4.447 -4.4452 c1.0138 0 2.0074 0.35142 2.793 0.98988 l-0.2723 0.33486 c-0.71942 -0.58326 -1.5915 -0.89236 -2.5206 -0.89236 c-2.2134 0 -4.0148 1.8013 -4.0148 4.0148 s1.8013 4.0148 4.0148 4.0148 l1.3119 0 l0 -3.2328 l0.43238 0 l0 6.2079 l-1.7443 0 c-3.8546 0 -6.9898 -3.1352 -6.9898 -6.9898 s3.1352 -6.9898 6.9898 -6.9898 c1.6946 0 3.3284 0.61636 4.6036 1.735 l-0.2852 0.32566 c-1.196 -1.0506 -2.7286 -1.6283 -4.3184 -1.6283 c-3.6154 0 -6.5576 2.942 -6.5576 6.5576 s2.942 6.5576 6.5576 6.5576 l1.3119 0 l0 -0.20238 l-1.3119 0 c-3.5032 0 -6.3532 -2.8518 -6.3532 -6.3552 s2.85 -6.3532 6.3532 -6.3532 z M161.61638000000002 19.99939454 l-0.43238 0 l0 -13.978 l0.43238 0 l0 13.978 z M162.28430000000003 19.99939454 l-0.43238 0 l0 -13.978 l0.43238 0 l0 13.978 z M162.95040000000003 19.99939454 l-0.43238 0 l0 -13.978 l0.43238 0 l0 13.978 z M163.61640000000003 19.99939454 l-0.43238 0 l0 -13.978 l0.43238 0 l0 13.978 z M169.68260000000004 12.1704 l0 -6.149 l0.43238 0 l0 13.98 l-0.43238 0 l0 -4.7305 l-5.3984 0 l0 4.7286 l-0.43238 0 l0 -13.978 l0.43238 0 l0 6.149 l5.3984 0 z M169.68260000000004 12.6028 l-5.3984 0 l0 0.23551 l5.3984 0 l0 -0.23551 z M164.28420000000003 13.5044 l5.3984 0 l0 -0.23551 l-5.3984 0 l0 0.23551 z M169.68260000000004 13.9368 l-5.3984 0 l0 0.23551 l5.3984 0 l0 -0.23551 z M164.28420000000003 14.8384 l5.3984 0 l0 -0.23551 l-5.3984 0 l0 0.23551 z M170.78100000000003 19.99939454 l-0.43238 0 l0 -13.978 l0.43238 0 l0 13.978 z M171.449 19.99939454 l-0.43238 0 l0 -13.978 l0.43238 0 l0 13.978 z M172.11500000000004 19.99939454 l-0.43238 0 l0 -13.978 l0.43238 0 l0 13.978 z M172.78300000000002 19.99939454 l-0.43238 0 l0 -13.978 l0.43238 0 l0 13.978 z M190.33520000000001 6.52 l-8.6753 0 l0 -0.43238 l8.6753 0 l0 0.43238 z M190.33520000000001 7.188000000000001 l-8.6753 0 l0 -0.43238 l8.6753 0 l0 0.43238 z M190.33520000000001 7.853999999999999 l-8.6753 0 l0 -0.43238 l8.6753 0 l0 0.43238 z M190.33520000000001 8.522 l-8.6753 0 l0 -0.43238 l8.6753 0 l0 0.43238 z M181.66000000000003 9.188 l0 -0.43238 l8.6771 0 l0 0.43238 l-2.7893 0 l0 10.811 l-0.43055 0 l0 -10.811 l-0.23551 0 l0 10.811 l-0.43238 0 l0 -10.811 l-0.23367 0 l0 10.811 l-0.43238 0 l0 -10.811 l-0.23551 0 l0 10.811 l-0.43238 0 l0 -10.811 l-0.23367 0 l0 10.811 l-0.43238 0 l0 -10.811 l-2.7893 0 z"></path></g>
			</g>
		</svg>
	